<svg width="30" height="30" viewBox="0 0 30 30" fill="none" xmlns="http://www.w3.org/2000/svg" xmlns:xlink="http://www.w3.org/1999/xlink" >
<g filter="url(#filter0_d_11_2)">
<path d="M5 6.98017L16.2181 2L22.5205 4.79785L16.2181 7.59569L11.3023 9.77801L5 6.98017Z" fill="white"/>
<path d="M16.2181 7.59569L11.3023 9.77801V16.2131V22.6481L16.2181 20.4658L22.5205 17.6679V4.79785L16.2181 7.59569Z" fill="white"/>
<path d="M11.3023 9.77801L5 6.98017V19.8503L11.3023 22.6481V16.2131V9.77801Z" fill="white"/>
<path d="M5 6.98017L16.2181 2L22.5205 4.79785M5 6.98017L11.3023 9.77801M5 6.98017V19.8503L11.3023 22.6481M22.5205 4.79785L16.2181 7.59569L11.3023 9.77801M22.5205 4.79785V17.6679L16.2181 20.4658L11.3023 22.6481M11.3023 9.77801V16.2131V22.6481" stroke="black" stroke-width="2"/>
</g>
<g filter="url(#filter1_d_11_2)">
<path d="M11.4795 16.3321L22.6977 11.3519L29 14.1497L22.6977 16.9476L17.7819 19.1299L11.4795 16.3321Z" fill="#87CEFA"/>
<path d="M17.7819 19.1299L11.4795 16.3321V29.2022L17.7819 32V25.565V19.1299Z" fill="#87CEFA"/>
<path d="M22.6977 16.9476L17.7819 19.1299V25.565V32L22.6977 29.8177L29 27.0198V14.1497L22.6977 16.9476Z" fill="#87CEFA"/>
<path d="M11.4795 16.3321L22.6977 11.3519L29 14.1497M11.4795 16.3321L17.7819 19.1299M11.4795 16.3321V29.2022L17.7819 32M29 14.1497L22.6977 16.9476L17.7819 19.1299M29 14.1497V27.0198L22.6977 29.8177L17.7819 32M17.7819 19.1299V25.565V32" stroke="black" stroke-width="2"/>
</g>
</svg>
