<svg width="314" height="332" viewBox="0 0 314 332" fill="none" xmlns="http://www.w3.org/2000/svg">
<g filter="url(#filter0_d_76_10)">
<path d="M307 100.888L90.1025 226.113V320.153L307 194.927V100.888Z" fill="#DFD981"/>
<path d="M90.1025 226.113L7 178.134V272.174L90.1025 320.153V226.113Z" fill="#DFD981"/>
<path d="M223.898 52.9082L7 178.134L90.1025 226.113L307 100.888L223.898 52.9082Z" fill="#DFD981"/>
<path d="M156.438 32.7569L207.553 62.2683L153.114 93.6989L101.999 64.1875L156.438 32.7569Z" fill="#2AB949"/>
<path d="M207.553 62.2683L153.114 93.6989L156.438 164.708L210.877 133.278L207.553 62.2683Z" fill="#2AB949"/>
<path d="M153.114 93.6989L101.999 64.1875L105.323 135.197L156.438 164.708L153.114 93.6989Z" fill="#2AB949"/>
<path d="M172.782 3.24573L223.898 32.7571L169.458 64.1876L118.343 34.6762L172.782 3.24573Z" fill="#2AB949"/>
<path d="M7 178.134L223.898 52.9082L307 100.888M7 178.134L90.1025 226.113M7 178.134V272.174L90.1025 320.153M307 100.888L90.1025 226.113M307 100.888V194.927L90.1025 320.153M90.1025 226.113V320.153M207.553 62.2683L156.438 32.7569L101.999 64.1875M207.553 62.2683L153.114 93.6989M207.553 62.2683L210.877 133.278L156.438 164.708M153.114 93.6989L101.999 64.1875M153.114 93.6989L156.438 164.708M101.999 64.1875L105.323 135.197L156.438 164.708M172.782 3.24573L223.898 32.7571L169.458 64.1876L118.343 34.6762L172.782 3.24573Z" stroke="black" stroke-width="5"/>
</g>
</svg>
