<svg width="737" height="570" viewBox="0 0 737 570" fill="none" xmlns="http://www.w3.org/2000/svg">
<path d="M86.6025 228L338.616 373.5L252.013 423.5L0 278L86.6025 228Z" fill="#66C581"/>
<path d="M338.616 373.5L252.013 423.5L252.616 569.5L339.218 519.5L338.616 373.5Z" fill="#66C581"/>
<path d="M252.013 423.5L0 278L0.602539 424L252.616 569.5L252.013 423.5Z" fill="#66C581"/>
<path d="M483.603 0L735.616 145.5L649.013 195.5L397 50L483.603 0Z" fill="#66C581"/>
<path d="M735.616 145.5L649.013 195.5L649.616 341.5L736.219 291.5L735.616 145.5Z" fill="#66C581"/>
<path d="M649.013 195.5L397 50L397.603 196L649.616 341.5L649.013 195.5Z" fill="#66C581"/>
<path d="M369.539 244.355C345.624 258.162 306.851 258.162 282.936 244.355C271.263 237.616 265.287 228.832 265.01 220L266.159 290.586C263.682 301.149 269.475 312.236 283.539 320.355C307.453 334.162 346.226 334.162 370.141 320.355C384.205 312.236 389.998 301.149 387.521 290.586L387.464 220C387.187 228.832 381.212 237.616 369.539 244.355Z" fill="#8E9021"/>
<path d="M282.936 244.355C306.851 258.162 345.624 258.162 369.539 244.355C381.212 237.616 387.187 228.832 387.464 220C387.755 210.738 381.78 201.423 369.539 194.355C345.624 180.548 306.851 180.548 282.936 194.355C270.695 201.423 264.719 210.738 265.01 220C265.287 228.832 271.263 237.616 282.936 244.355Z" fill="#8E9021"/>
<path d="M638.64 454.513C624.844 463.078 602.477 463.078 588.681 454.513C581.947 450.333 578.5 444.885 578.34 439.407L579.003 483.189C577.574 489.741 580.916 496.617 589.029 501.654C602.825 510.218 625.192 510.218 638.988 501.654C647.101 496.617 650.442 489.741 649.013 483.189L648.981 439.407C648.821 444.885 645.374 450.333 638.64 454.513Z" fill="#8E9021"/>
<path d="M588.681 454.513C602.477 463.078 624.844 463.078 638.64 454.513C645.374 450.333 648.821 444.885 648.981 439.407C649.149 433.662 645.702 427.884 638.64 423.5C624.844 414.936 602.477 414.936 588.681 423.5C581.62 427.884 578.173 433.662 578.34 439.407C578.5 444.885 581.947 450.333 588.681 454.513Z" fill="#8E9021"/>
<path d="M2.59778 422.843L2.01435 281.472L250.018 424.657L250.602 566.028L2.59778 422.843ZM254.602 566.044L254.018 424.652L336.63 376.956L337.214 518.348L254.602 566.044ZM86.6025 230.309L334.616 373.5L252.013 421.191L4.00001 278L86.6025 230.309ZM399.598 194.843L399.014 53.4724L647.018 196.657L647.602 338.028L399.598 194.843ZM651.602 338.044L651.018 196.652L733.63 148.956L734.214 290.348L651.602 338.044ZM483.603 2.3094L731.616 145.5L649.013 193.191L401 50L483.603 2.3094ZM368.539 242.623C356.957 249.31 341.651 252.711 326.237 252.711C310.823 252.711 295.518 249.31 283.936 242.623C272.619 236.089 267.257 227.837 267.009 219.937C266.75 211.675 272.067 202.94 283.936 196.087C295.518 189.401 310.823 186 326.237 186C341.651 186 356.957 189.401 368.539 196.087C380.407 202.94 385.725 211.675 385.465 219.937C385.217 227.837 379.856 236.089 368.539 242.623ZM267.22 232.882C270.407 237.783 275.358 242.29 281.936 246.087C294.269 253.208 310.307 256.711 326.237 256.711C342.167 256.711 358.206 253.208 370.539 246.087C377.27 242.201 382.298 237.573 385.474 232.539L385.521 290.587L385.521 290.818L385.573 291.042C387.774 300.426 382.772 310.754 369.141 318.623C357.559 325.31 342.254 328.711 326.84 328.711C311.426 328.711 296.12 325.31 284.539 318.623C270.908 310.754 265.906 300.426 268.106 291.042L268.163 290.801L268.159 290.553L267.22 232.882ZM637.585 452.814C631.073 456.857 622.42 458.937 613.661 458.937C604.902 458.937 596.248 456.857 589.736 452.814C583.391 448.875 580.48 443.972 580.34 439.363V439.362L580.339 439.348C580.199 434.527 583.076 429.334 589.736 425.199C596.248 421.157 604.902 419.077 613.661 419.077C622.42 419.077 631.073 421.157 637.585 425.199C644.245 429.334 647.123 434.527 646.982 439.348C646.847 443.962 643.937 448.871 637.585 452.814ZM646.989 449.862L647.013 483.19L647.014 483.405L647.059 483.615C648.252 489.085 645.576 495.21 637.933 499.955C631.421 503.997 622.767 506.077 614.008 506.077C605.249 506.077 596.595 503.997 590.084 499.955C582.44 495.21 579.764 489.085 580.957 483.615L581.006 483.389L581.003 483.158L580.502 450.075C582.32 452.329 584.71 454.402 587.626 456.213C594.91 460.734 604.338 462.937 613.661 462.937C622.983 462.937 632.411 460.734 639.695 456.213C642.703 454.346 645.151 452.198 646.989 449.862Z" stroke="black" stroke-width="4"/>
<path d="M355.846 285.941C350.334 286.29 346.148 291.041 346.497 296.552L352.179 386.373C352.527 391.885 357.278 396.07 362.79 395.722C368.302 395.373 372.487 390.622 372.139 385.11L367.088 305.27L446.929 300.219C452.441 299.871 456.626 295.12 456.277 289.608C455.929 284.096 451.178 279.911 445.666 280.259L355.846 285.941ZM588.186 486.732L363.088 288.418L349.866 303.424L574.964 501.739L588.186 486.732Z" fill="#C92828"/>
</svg>
