<svg width="663" height="460" viewBox="0 0 663 460" fill="none" xmlns="http://www.w3.org/2000/svg">
<path d="M86.8975 248.387L168.5 295.5L86.8975 342.613L5.29493 295.5L86.8975 248.387ZM2.79492 299.83L84.3975 346.943V455.17L2.79492 408.057V299.83ZM171 299.83V408.057L89.3975 455.17V346.943L171 299.83ZM335 199.854L360.814 214.056L335 228.259L309.186 214.056L335 199.854ZM306.5 218.285L332.5 232.59V265.771L306.5 251.466V218.285ZM337.5 265.771V232.59L363.5 218.285V251.466L337.5 265.771ZM478.5 212.561L426 240.72V176.076L478.5 147.917V212.561ZM475.711 143.739L423.5 171.743L371.289 143.739L423.5 115.735L475.711 143.739ZM368.5 212.56V147.917L421 176.076V240.72L368.5 212.56ZM238.5 216.893L290.711 244.898L238.5 272.902L186.289 244.898L238.5 216.893ZM183.5 249.075L236 277.235V341.879L183.5 313.719V249.075ZM293.5 249.075V313.719L241 341.879V277.235L293.5 249.075ZM575.5 2.94278L657.103 50.056L575.5 97.1693L493.898 50.056L575.5 2.94278ZM491.398 54.3862L573 101.499V209.726L491.398 162.613V54.3862ZM578 209.726V101.499L659.603 54.3862V162.613L578 209.726Z" fill="#AE0B0B" stroke="black" stroke-width="5"/>
</svg>
