<svg width="271" height="296" viewBox="0 0 271 296" fill="none" xmlns="http://www.w3.org/2000/svg">
<path d="M222.635 90.7601L270.048 132.558L220.764 176.006L173.351 134.208L222.635 90.7601Z" fill="#1B06FC"/>
<path d="M69.4732 204.989C53.7964 218.809 28.3795 218.809 12.7028 204.989C5.05469 198.246 1.13783 189.46 0.952177 180.624C0.757285 171.349 4.67414 162.019 12.7028 154.941C28.3795 141.121 53.7964 141.121 69.4731 154.941C77.5018 162.019 81.4186 171.349 81.2237 180.625C81.0381 189.46 77.1212 198.246 69.4732 204.989Z" fill="#D9D9D9"/>
<path d="M114.709 0.0144368L94.9337 65.077L40.9067 17.4479L114.709 0.0144368Z" fill="#FF070B"/>
<path d="M94.9337 65.077L40.9067 17.4479L40.1863 97.744L94.2134 145.373L94.9337 65.077Z" fill="#FF070B"/>
<path d="M114.709 0.0144368L94.9337 65.077L94.2134 145.373L113.989 80.3105L114.709 0.0144368Z" fill="#FF070B"/>
<path d="M220.764 176.006L173.351 134.208L172.631 214.504L220.043 256.302L220.764 176.006Z" fill="#1B06FC"/>
<path d="M270.048 132.558L220.764 176.006L220.043 256.302L269.327 212.854L270.048 132.558Z" fill="#1B06FC"/>
<path d="M69.4732 204.989C53.7964 218.809 28.3795 218.809 12.7028 204.989C5.05469 198.246 1.13783 189.46 0.952177 180.624L0.283958 262.186C0.800122 270.591 4.69961 278.864 11.9824 285.285C27.6591 299.105 53.0761 299.105 68.7528 285.285C76.0356 278.864 79.9351 270.591 80.4513 262.186L81.2237 180.625C81.0381 189.46 77.1212 198.246 69.4732 204.989Z" fill="#D9D9D9"/>
<path d="M267.422 132.558L220.764 173.691L175.976 134.208L222.635 93.0746L267.422 132.558ZM175.172 138.128L218.901 176.678L218.222 252.382L174.493 213.831L175.172 138.128ZM222.614 176.689L268.155 136.541L267.477 212.171L221.935 252.319L222.614 176.689ZM68.1604 203.832C53.2087 217.013 28.9672 217.013 14.0155 203.831C6.72058 197.4 2.98544 189.023 2.80833 180.594C2.62238 171.745 6.35796 162.849 14.0155 156.098C28.9672 142.917 53.2087 142.917 68.1604 156.098C75.8179 162.849 79.5535 171.745 79.3676 180.594C79.1905 189.024 75.4553 197.4 68.1604 203.832ZM70.7859 206.146C74.3923 202.967 77.2059 199.352 79.2264 195.495L78.5952 262.134C78.0938 270.139 74.3763 278.013 67.4401 284.128C52.4884 297.309 28.2469 297.309 13.2951 284.128C6.36256 278.016 2.64539 270.148 2.14079 262.147L2.691 194.991C4.72739 199.038 7.62713 202.829 11.39 206.146C27.7917 220.605 54.3842 220.605 70.7859 206.146ZM96.7882 65.2988L112.738 12.8241L112.134 80.0887L96.1848 132.563L96.7882 65.2988ZM93.0711 65.7495L92.392 141.453L42.0489 97.0714L42.728 21.3681L93.0711 65.7495ZM44.4931 18.2951L112.084 2.32897L93.9727 61.9153L44.4931 18.2951Z" stroke="black" stroke-width="3.5"/>
</svg>
